<svg width="110" height="110" viewBox="0 0 110 110" fill="none" xmlns="http://www.w3.org/2000/svg">
<g filter="url(#filter0_d)">
<circle cx="55" cy="51" r="51" fill="#333333"/>
</g>
<path d="M80.8148 28.2884L80.3262 28.3784C80.209 27.7423 80.127 27.1009 80.0895 26.5763C80.0709 26.3146 80.0627 26.0746 80.0682 25.875C80.0729 25.7 80.0884 25.4827 80.1569 25.3159L80.8148 28.2884ZM80.8148 28.2884L80.3262 28.3785C81.5259 34.8914 81.1912 40.7518 79.3472 45.9522C79.0214 46.871 78.7473 47.6031 78.5197 48.1586C78.5033 48.1988 78.4871 48.238 78.4712 48.2761C78.3245 45.6683 77.3912 42.8802 76.0097 40.4633C74.5157 37.8497 72.461 35.6068 70.2214 34.497L70.005 34.9336M80.8148 28.2884L70.005 34.9336M70.005 34.9336L70.2214 34.497C69.4197 34.0998 68.7615 33.8505 68.2679 33.7589C68.0258 33.714 67.7746 33.6974 67.5508 33.7557C67.3013 33.8206 67.0583 33.9921 66.9737 34.3022C66.9028 34.5622 66.9745 34.82 67.0595 35.0173C67.1503 35.2277 67.2928 35.4524 67.4711 35.6856C67.8293 36.1537 68.3803 36.718 69.1158 37.3584C72.9762 40.7197 74.5362 45.8166 73.7854 52.0445C73.0336 58.281 69.9644 65.6096 64.6189 73.3154L63.6296 74.7415M70.005 34.9336L63.6296 74.7415M63.6296 74.7415L63.3699 73.8458C61.8825 68.7155 61.3619 67.3701 59.4186 63.6645L57.4999 60.0057L58.9549 58.244C59.8319 57.1824 61.6618 55.6303 62.9934 54.8253C63.6948 54.4014 64.3234 53.9653 64.7726 53.6004C64.9949 53.4197 65.1875 53.2451 65.3241 53.0896C65.3908 53.0137 65.4606 52.9239 65.5114 52.8262C65.5495 52.7528 65.6442 52.5501 65.5608 52.3161L63.6296 74.7415ZM60.4824 79.3884L59.9952 79.5008C56.6832 65.1462 52.056 57.0978 45.7296 54.0963C45.3482 53.9153 45.0294 53.7156 44.7897 53.5021C44.5585 53.296 44.3545 53.0353 44.295 52.725C44.2271 52.3707 44.366 52.0537 44.6248 51.8349C44.8584 51.6374 45.1799 51.5231 45.5305 51.4596C45.5305 51.4596 45.5305 51.4596 45.5305 51.4596L45.6196 51.9516L60.4824 79.3884ZM60.4824 79.3884L59.9952 79.5008C60.2045 80.4081 60.3831 81.1303 60.5609 81.6989C60.7371 82.2629 60.9235 82.7133 61.1637 83.0553C61.4163 83.415 61.7238 83.6482 62.1108 83.7795C62.4739 83.9026 62.8825 83.9269 63.3186 83.9269C63.6673 83.9269 64.0111 83.9189 64.3388 83.8177C64.6874 83.7101 64.9794 83.511 65.2699 83.1997C65.5504 82.899 65.8417 82.4801 66.1915 81.9148C66.5437 81.3457 66.9711 80.6015 67.5209 79.6358L67.0863 79.3884L67.5209 79.6358C68.8757 77.2557 72.4061 71.3102 73.694 69.2399L73.694 69.2398M60.4824 79.3884L73.694 69.2398M73.694 69.2398C73.8878 68.9283 74.2654 68.5562 74.8833 68.1283C75.4949 67.7047 76.3104 67.2478 77.3424 66.7556L77.1271 66.3043M73.694 69.2398L77.1271 66.3043M77.1271 66.3043L77.3424 66.7556C83.5933 63.7739 88.5255 57.758 89.5264 51.7896L89.0333 51.7069M77.1271 66.3043L89.0333 51.7069M89.0333 51.7069L89.5264 51.7895C89.702 50.7421 89.7381 49.8871 89.6611 49.2527M89.0333 51.7069L89.6611 49.2527M64.1726 51.4617C64.7516 51.4701 65.337 51.6884 65.5607 52.3159L64.1726 51.4617ZM64.1726 51.4617C63.6008 51.4534 62.9065 51.6344 62.1664 51.9353M64.1726 51.4617L62.1664 51.9353M62.1664 51.9353C60.6733 52.5425 58.8237 53.7089 57.0511 55.2418M62.1664 51.9353L57.0511 55.2418M57.0511 55.2418L54.9627 57.0479L57.0511 55.2418ZM89.6611 49.2527C89.6227 48.9368 89.5537 48.6528 89.4441 48.4212M89.6611 49.2527L89.4441 48.4212M89.4441 48.4212C89.3372 48.1954 89.1629 47.9613 88.8837 47.8533M89.4441 48.4212L88.8837 47.8533M88.8837 47.8533C88.5844 47.7375 88.2924 47.8141 88.0667 47.9542M88.8837 47.8533L88.0667 47.9542M88.0667 47.9542C87.8497 48.0889 87.6595 48.2991 87.4923 48.5435M88.0667 47.9542L87.4923 48.5435M87.4923 48.5435C87.1554 49.0362 86.83 49.7901 86.5449 50.7938M87.4923 48.5435L86.5449 50.7938M86.5449 50.7938C85.1847 55.5817 81.8731 59.8462 78.2311 61.6054M86.5449 50.7938L78.2311 61.6054M78.2311 61.6054C77.9717 61.7307 77.7636 61.8272 77.5982 61.8967L78.2311 61.6054ZM26.869 26.4281L26.869 26.4282C25.715 28.8651 25.024 32.4434 24.8301 36.002C24.6361 39.5602 24.9347 43.1817 25.8189 45.7075C26.1886 46.7634 26.5735 48.0086 26.6773 48.4711C26.755 48.8177 27.041 49.5903 27.4211 50.5453C27.8091 51.5201 28.3148 52.7327 28.855 53.9898C29.9332 56.4989 31.1588 59.2082 31.8663 60.5648L31.8663 60.5648C32.1447 61.0986 32.3573 61.5096 32.5026 61.8211C32.1924 61.6802 31.7834 61.4741 31.2531 61.2045L31.037 61.6297L31.2531 61.2045C27.6223 59.3588 24.7268 55.5387 23.4594 50.8256C23.2245 49.9521 22.9697 49.2662 22.7103 48.7848C22.5812 48.5452 22.4404 48.3362 22.2852 48.1786C22.1372 48.0282 21.922 47.8704 21.6457 47.8549C21.3374 47.8376 21.1048 48.0025 20.9588 48.1896C20.821 48.3664 20.7309 48.594 20.6681 48.8314C20.5409 49.3124 20.4848 49.9945 20.5035 50.8558C20.6371 56.9949 25.7901 63.4141 33.2931 67.1153L33.5143 66.6669L33.2931 67.1153C33.5646 67.2492 33.7942 67.357 33.9955 67.4515C34.3736 67.6291 34.6515 67.7596 34.9177 67.9271C35.2878 68.16 35.6189 68.4602 36.0807 69.0858C36.8764 70.164 37.9875 72.103 40.2505 76.0521C40.6993 76.8352 41.1934 77.6974 41.7393 78.6476C43.124 81.058 43.8875 82.3725 44.4884 83.067C44.8036 83.4313 45.1086 83.6684 45.4723 83.7976C45.8192 83.9207 46.1745 83.9269 46.5233 83.9269C46.9675 83.9269 47.3889 83.905 47.7631 83.7713C48.1649 83.6277 48.4755 83.3703 48.7307 82.9775C48.9735 82.6036 49.1688 82.1033 49.3622 81.461C49.5572 80.8132 49.7614 79.982 50.0083 78.9253L49.5214 78.8116L50.0083 78.9253C51.0063 74.6543 52.1251 70.9595 53.3191 67.9785L52.855 67.7926L53.3191 67.9785L54.185 65.8168L54.2879 65.5599L54.1249 65.3363L53.1834 64.0447C52.9156 63.6773 52.6397 63.3386 52.4077 63.0871C52.2928 62.9626 52.1807 62.8507 52.0804 62.7659C52.031 62.7242 51.9739 62.68 51.9132 62.6434C51.8721 62.6187 51.7502 62.5466 51.5907 62.5449L51.5905 62.5449C51.3677 62.5426 51.211 62.6699 51.1529 62.7201C51.0739 62.7882 51.0027 62.872 50.9408 62.9535C50.8149 63.1192 50.6759 63.3447 50.53 63.6067C50.2357 64.1352 49.8803 64.8725 49.5025 65.7267C48.7457 67.4376 47.8821 69.6556 47.2155 71.6942L47.62 71.8265L47.2155 71.6942L46.2227 74.7306L45.2413 73.2979C45.2413 73.2979 45.2413 73.2979 45.2413 73.2979C44.5383 72.2715 43.0628 69.6859 41.6138 67.0086C40.1659 64.3334 38.7709 61.6156 38.2246 60.3322L37.8566 60.4889L38.2246 60.3322C36.2648 55.7282 35.6868 50.641 36.3108 46.3037C36.9375 41.9475 38.7568 38.4523 41.4788 36.8809L41.2379 36.4635L41.4788 36.8809C42.0321 36.5615 42.4517 36.2072 42.7228 35.8477C42.9831 35.5024 43.1605 35.0745 43.0512 34.6523C42.9303 34.1852 42.5244 33.9464 42.0961 33.8807C41.6757 33.8161 41.1579 33.8947 40.5761 34.1013L40.7334 34.5444L40.5761 34.1013C38.212 34.9409 36.0262 37.1178 34.3869 39.8595C32.8938 42.3566 31.8207 45.3759 31.4704 48.4204C31.066 47.4191 30.5527 45.8032 30.0337 43.7994C29.4724 41.6323 29.1611 38.4146 29.1253 35.3254C29.0894 32.2226 29.3329 29.3419 29.836 27.8237C30.0888 27.0609 30.1786 26.3939 30.1227 25.8593C30.0688 25.3434 29.8614 24.841 29.4046 24.6117C28.9251 24.371 28.4094 24.5445 28.0069 24.8604C27.5982 25.1811 27.209 25.7103 26.869 26.4281ZM32.7093 62.3683C32.709 62.368 32.7083 62.3634 32.7082 62.3552C32.7096 62.3645 32.7096 62.3686 32.7093 62.3683ZM33.039 62.0213C33.0469 62.0214 33.0514 62.022 33.0517 62.0223C33.052 62.0226 33.048 62.0225 33.039 62.0213Z" fill="white" stroke="white"/>
<defs>
<filter id="filter0_d" x="0" y="0" width="110" height="110" filterUnits="userSpaceOnUse" color-interpolation-filters="sRGB">
<feFlood flood-opacity="0" result="BackgroundImageFix"/>
<feColorMatrix in="SourceAlpha" type="matrix" values="0 0 0 0 0 0 0 0 0 0 0 0 0 0 0 0 0 0 127 0"/>
<feOffset dy="4"/>
<feGaussianBlur stdDeviation="2"/>
<feColorMatrix type="matrix" values="0 0 0 0 0 0 0 0 0 0 0 0 0 0 0 0 0 0 0.25 0"/>
<feBlend mode="normal" in2="BackgroundImageFix" result="effect1_dropShadow"/>
<feBlend mode="normal" in="SourceGraphic" in2="effect1_dropShadow" result="shape"/>
</filter>
</defs>
</svg>
