<svg width="16" height="13" viewBox="0 0 16 13" fill="none" xmlns="http://www.w3.org/2000/svg">
<path fill-rule="evenodd" clip-rule="evenodd" d="M1.48292 0.36538C0.959744 1.41313 0.840682 3.48551 1.24127 4.57065C1.32814 4.806 1.42043 5.08827 1.44638 5.19797C1.50924 5.46409 2.3258 7.26616 2.65331 7.86172C2.97474 8.44612 2.96878 8.45194 2.35228 8.15468C1.46551 7.72715 0.768013 6.84827 0.463705 5.77509C0.248037 5.01448 -0.0164048 5.00044 0.000797703 5.7505C0.0308097 7.05881 1.1968 8.45725 2.93594 9.27089C3.6258 9.5936 3.42619 9.33715 4.96727 11.8812C5.62392 12.9653 5.65561 13 5.98792 13C6.40058 13 6.45945 12.914 6.6913 11.9731C6.92634 11.0191 7.19041 10.1913 7.47337 9.52137L7.67652 9.04037L7.45564 8.75297C7.33415 8.59491 7.20807 8.46532 7.17551 8.46499C7.06655 8.46394 6.57203 9.52428 6.26181 10.424L5.955 11.314L5.59038 10.8092C5.25244 10.3412 4.19431 8.48707 3.93307 7.905C2.99666 5.8187 3.37947 3.29522 4.74581 2.54716C5.22769 2.28333 5.13917 1.95905 4.63192 2.12988C3.59431 2.47936 2.65405 3.97072 2.55362 5.42644C2.53088 5.75578 2.26906 5.17473 2.00581 4.21077C1.7357 3.22172 1.71234 1.30679 1.96164 0.593275C2.18535 -0.0469134 1.78419 -0.237894 1.48292 0.36538ZM13.9871 0.11257C13.9591 0.177127 13.9801 0.45565 14.0336 0.731555C14.3181 2.19618 14.2399 3.52035 13.7992 4.69904C13.4924 5.51966 13.3725 5.69431 13.3705 5.32366C13.3641 4.12959 12.4906 2.68042 11.4956 2.21277C10.7563 1.86536 10.6871 2.10584 11.3653 2.66583C13.2509 4.22295 12.8514 7.36585 10.3296 10.8136L9.9571 11.3229L9.82757 10.8992C9.48023 9.76294 9.36076 9.47089 8.90935 8.65452L8.423 7.77494L8.81402 7.32595C9.02907 7.07903 9.46882 6.72577 9.79123 6.54094C10.1136 6.3561 10.3623 6.1645 10.3437 6.11519C10.2271 5.80484 9.3523 6.14225 8.53455 6.81295L7.9665 7.27885L7.46299 6.85114C6.92277 6.39226 6.04914 5.94978 5.77591 5.99673C5.48458 6.04677 5.52042 6.22422 5.85199 6.37342C7.38978 7.06536 8.48516 8.90489 9.2628 12.1014C9.45917 12.9085 9.52687 13 9.9282 13C10.2584 13 10.2954 12.9623 10.8121 12.1014C11.1306 11.5708 11.9597 10.2466 12.2627 9.78462C12.3782 9.60848 12.6771 9.41215 13.1678 9.19022C14.606 8.53955 15.7336 7.22841 15.961 5.94228C16.1215 5.03415 15.7511 4.89824 15.4901 5.76952C15.1639 6.85852 14.3686 7.83681 13.4778 8.24488C13.037 8.44681 13.0316 8.40764 13.4009 7.68598C15.0734 4.41768 15.4046 2.13646 14.4641 0.362615C14.3031 0.0589967 14.0645 -0.0660805 13.9871 0.11257Z" fill="#333333"/>
</svg>
